<?xml version="1.0" standalone="no"?>
<!DOCTYPE svg PUBLIC "-//W3C//DTD SVG 20010904//EN"
 "http://www.w3.org/TR/2001/REC-SVG-20010904/DTD/svg10.dtd">
<svg version="1.0" xmlns="http://www.w3.org/2000/svg"
 width="980.000000pt" height="980.000000pt" viewBox="0 0 980.000000 980.000000"
 preserveAspectRatio="xMidYMid meet">
<metadata>
Created by potrace 1.14, written by Peter Selinger 2001-2017
</metadata>
<g transform="translate(0.000000,980.000000) scale(0.100000,-0.100000)"
fill="#000000" stroke="none">
<path d="M1290 8561 c-47 -10 -118 -33 -159 -50 -584 -248 -835 -876 -582
-1455 35 -80 125 -209 201 -290 98 -102 280 -226 392 -266 49 -17 54 -21 60
-57 4 -21 7 -307 7 -635 l1 -598 -317 -1 c-408 0 -701 -12 -733 -29 -54 -28
-109 -82 -134 -132 -23 -45 -26 -65 -26 -148 0 -83 3 -103 26 -148 27 -54 88
-112 139 -133 41 -16 803 -27 1883 -28 l853 -1 -3 -622 c-2 -343 -7 -631 -12
-640 -4 -10 -16 -18 -25 -18 -29 0 -160 -68 -254 -132 -252 -173 -414 -430
-457 -727 -17 -110 -7 -311 19 -416 87 -352 344 -635 683 -754 144 -50 242
-64 408 -58 177 6 261 26 415 101 120 59 209 122 298 211 236 236 351 570 306
891 -52 373 -276 680 -613 840 -51 24 -99 44 -105 44 -29 0 -33 68 -38 668
l-6 612 1383 0 1383 0 -6 -613 c-6 -598 -10 -667 -38 -667 -20 0 -196 -87
-256 -127 -358 -237 -547 -726 -442 -1143 80 -315 289 -572 584 -716 173 -84
244 -99 460 -98 200 0 257 11 422 78 134 55 227 119 343 235 148 149 226 287
280 492 28 108 37 304 20 420 -43 297 -205 554 -459 728 -93 63 -223 131 -252
131 -9 0 -21 8 -25 17 -5 10 -10 298 -12 640 l-3 623 853 1 c1080 1 1842 12
1883 28 51 21 112 79 139 133 23 45 26 65 26 148 0 83 -3 103 -26 148 -25 50
-80 104 -134 132 -32 17 -325 29 -732 29 l-318 1 1 598 c0 328 3 615 7 636 6
35 11 40 47 51 58 17 118 50 216 117 219 149 361 332 438 563 94 284 55 616
-105 885 -140 235 -366 409 -629 486 -110 32 -329 44 -452 25 -493 -77 -848
-454 -905 -962 -33 -302 68 -606 277 -828 109 -115 296 -244 409 -282 42 -14
52 -23 57 -46 4 -15 7 -301 8 -635 l1 -608 -1376 0 -1376 0 5 618 c2 339 8
627 12 640 5 13 15 22 29 22 46 0 245 119 351 212 296 255 427 634 349 1011
-86 417 -381 732 -785 837 -107 28 -312 38 -430 21 -97 -14 -231 -57 -321
-102 -328 -165 -559 -506 -587 -864 -30 -396 130 -747 443 -969 85 -61 187
-115 254 -136 l57 -18 3 -636 2 -636 -1375 0 -1375 0 0 639 0 639 39 7 c22 4
75 24 118 46 298 153 512 426 580 740 28 132 24 364 -10 491 -100 380 -393
675 -772 778 -116 32 -384 38 -505 11z m413 -638 c147 -70 277 -264 277 -418
0 -252 -282 -492 -523 -445 -136 26 -276 140 -345 279 -35 71 -37 81 -37 171
0 88 3 101 33 163 36 73 131 182 189 218 90 56 142 70 244 66 82 -3 106 -8
162 -34z m3318 21 c116 -34 221 -130 286 -261 36 -74 38 -81 38 -178 0 -96 -2
-104 -37 -176 -59 -117 -163 -212 -283 -254 -66 -24 -184 -24 -250 0 -210 74
-351 290 -324 491 21 154 175 331 332 379 58 19 173 18 238 -1z m3434 -22 c93
-44 171 -126 227 -238 41 -84 43 -91 43 -178 0 -84 -3 -97 -37 -169 -92 -192
-301 -312 -481 -277 -34 6 -88 25 -119 42 -80 43 -190 159 -231 244 -29 63
-32 78 -32 164 0 88 3 101 33 163 36 72 116 166 181 211 21 15 66 39 98 52 51
22 69 24 154 21 82 -3 106 -8 164 -35z m-5109 -5197 c140 -40 281 -209 315
-378 34 -166 -95 -383 -278 -470 -63 -29 -76 -32 -168 -32 -96 0 -103 2 -178
38 -94 46 -202 147 -235 220 -55 118 -56 254 -2 364 61 124 212 248 334 273
51 11 144 4 212 -15z m3327 10 c93 -19 157 -57 229 -134 157 -167 180 -369 64
-545 -129 -193 -358 -268 -550 -178 -184 86 -312 306 -278 478 20 98 55 160
140 244 81 80 153 123 232 139 65 13 87 12 163 -4z"/>
</g>
</svg>
